<?xml version="1.0" encoding="UTF-8" standalone="no"?> <svg xmlns:inkscape="http://www.inkscape.org/namespaces/inkscape" xmlns:sodipodi="http://sodipodi.sourceforge.net/DTD/sodipodi-0.dtd" xmlns="http://www.w3.org/2000/svg" xmlns:svg="http://www.w3.org/2000/svg" version="1.1" id="svg2" width="168.964" height="47.805866" viewBox="0 0 168.964 47.805866" sodipodi:docname="Orica_digital_Solutions_membertag_H_Logo_White_Rgb.ai"><defs id="defs6"><clipPath id="clipPath16"><path d="M 0,35.854 H 126.723 V 0 H 0 Z" id="path14"></path></clipPath></defs><g id="g8" inkscape:groupmode="layer" inkscape:label="Orica_digital_Solutions_membertag_H_Logo_White_Rgb" transform="matrix(1.3333333,0,0,-1.3333333,0,47.805867)"><g id="g10"><g id="g12" clip-path="url(#clipPath16)"><g id="g18" transform="translate(41.4442,16.5907)"><path d="m 0,0 -1.245,-6.082 h 1.373 c 0.434,0.045 0.791,0.351 0.912,0.758 L 2.129,0 Z" style="fill:#ffffff;fill-opacity:1;fill-rule:evenodd;stroke:none" id="path20"></path></g><g id="g22" transform="translate(24.6618,13.6034)"><path d="M 0,0 C 0.263,2.265 2.121,3.242 4.507,3.242 6.781,3.242 8.495,1.854 8.28,0 8.017,-2.265 6.159,-3.242 3.773,-3.242 1.499,-3.242 -0.215,-1.854 0,0 M 2.298,0 C 2.458,1.288 3.37,2.177 4.395,2.177 5.394,2.177 6.123,1.288 5.963,0 5.804,-1.288 4.892,-2.177 3.866,-2.177 2.867,-2.177 2.139,-1.288 2.298,0" style="fill:#ffffff;fill-opacity:1;fill-rule:evenodd;stroke:none" id="path24"></path></g><g id="g26" transform="translate(52.483,13.0702)"><path d="m 0,0 c 0.522,0.71 0.983,1.477 1.488,2.19 l 0.436,-2.194 z m 1.95,-1.012 c 0,0 0.092,-0.003 0.139,-0.041 0.048,-0.037 0.075,-0.129 0.075,-0.129 L 2.442,-2.558 4.481,-2.561 3.133,3.521 H 0.995 C 0.674,3.521 0.451,3.473 0.153,3.09 -1.805,0.58 -3.045,-1.646 -4.769,-1.646 c -1.216,0 -1.999,0.867 -1.838,2.179 0.161,1.312 1.258,2.098 2.399,2.098 0.739,0 1.213,-0.068 1.851,-0.405 l 0.595,0.854 c -0.661,0.444 -1.608,0.695 -2.6,0.695 -2.361,0 -4.269,-1.193 -4.507,-3.242 -0.215,-1.854 1.473,-3.242 3.855,-3.242 2.06,0 3.201,0.708 4.164,1.692 z" style="fill:#ffffff;fill-opacity:1;fill-rule:evenodd;stroke:none" id="path28"></path></g><g id="g30" transform="translate(36.6442,13.9712)"><path d="M 0,0 C 0.713,0 1.301,0.238 1.427,0.773 1.527,1.2 1.111,1.634 0.423,1.634 h -0.804 c 0,0 -0.092,-0.004 -0.139,-0.041 -0.048,-0.038 -0.075,-0.13 -0.075,-0.13 L -0.893,0 Z M 1.321,-0.508 C 1.99,-0.687 2.193,-1.197 2.332,-1.589 L 3.021,-3.462 H 0.914 l -0.561,1.638 c -0.256,0.761 -0.399,0.854 -1.279,0.854 h -0.155 l -0.341,-1.706 c -0.113,-0.422 -0.476,-0.741 -0.921,-0.786 h -1.353 l 1.267,6.082 3.535,0.003 c 1.425,0 2.303,-0.697 2.303,-1.558 0,-0.796 -0.91,-1.478 -2.089,-1.547 -0.039,-0.002 -0.028,-0.023 10e-4,-0.026" style="fill:#ffffff;fill-opacity:1;fill-rule:evenodd;stroke:none" id="path32"></path></g><g id="g34" transform="translate(12.9311,13.0589)"><path d="m 0,0 c -0.764,-0.559 -2.365,-1.95 -2.521,-2.236 0.284,-0.388 1.06,-1.241 1.703,-1.839 2.201,-1.988 4.835,-3.142 7.042,-2.861 3.542,0.453 4.64,4.434 2.452,8.892 C 6.488,6.414 1.843,9.662 -1.699,9.21 -5.241,8.757 -6.439,4.649 -3.989,0.001 c 0.587,0.61 1.819,1.648 2.448,2.116 0.088,0.065 0.15,0.199 0.093,0.339 C -2.587,5.275 -1.716,7.404 0.324,7.618 2.638,7.861 5.735,5.635 7.24,2.648 8.746,-0.339 8.089,-2.946 5.776,-3.2 3.535,-3.447 1.102,-1.428 0,0" style="fill:#ffffff;fill-opacity:1;fill-rule:evenodd;stroke:none" id="path36"></path></g><g id="g38" transform="translate(12.9311,13.0589)"><path d="M 0,0 C 0.293,0.222 0.409,0.182 0.475,0.102 0.813,-0.306 1.547,-1.059 2.107,-1.456 4.059,0.637 5.147,2.69 4.619,3.571 3.935,4.712 0.843,3.499 -2.286,0.861 -5.416,-1.777 -7.399,-4.84 -6.715,-5.982 -6.105,-7 -3.578,-6.144 -0.818,-4.075 -1.461,-3.477 -2.237,-2.624 -2.521,-2.236 -2.365,-1.95 -0.764,-0.559 0,0" style="fill:#ffffff;fill-opacity:1;fill-rule:evenodd;stroke:none" id="path40"></path></g><g id="g42" transform="translate(64.3803,13.5539)"><path d="m 0,0 c 0,1.252 -0.835,2.105 -2.044,2.105 h -1.314 v -4.21 h 1.314 C -0.826,-2.105 0,-1.253 0,0 m 1.026,0 c 0,-1.827 -1.235,-3.044 -3.07,-3.044 h -2.331 v 6.088 h 2.331 c 1.835,0 3.07,-1.217 3.07,-3.044" style="fill:#ffffff;fill-opacity:1;fill-rule:nonzero;stroke:none" id="path44"></path></g><path d="m 65.885,14.806 h 0.974 v -4.297 h -0.974 z m -0.13,1.236 c 0,0.356 0.261,0.608 0.617,0.608 0.374,0 0.635,-0.252 0.635,-0.608 0,-0.34 -0.261,-0.592 -0.635,-0.592 -0.356,0 -0.617,0.252 -0.617,0.592" style="fill:#ffffff;fill-opacity:1;fill-rule:nonzero;stroke:none" id="path46"></path><g id="g48" transform="translate(70.939,12.658)"><path d="M 0,0 C 0,0.8 -0.539,1.357 -1.313,1.357 -2.088,1.357 -2.627,0.8 -2.627,0 c 0,-0.8 0.539,-1.357 1.314,-1.357 C -0.539,-1.357 0,-0.8 0,0 m 0.974,2.148 v -4.297 c 0,-1.53 -1.087,-2.131 -2.279,-2.131 -0.661,0 -1.374,0.166 -2.026,0.609 l 0.426,0.766 c 0.539,-0.348 1.087,-0.487 1.522,-0.487 0.774,0 1.383,0.356 1.383,1.27 v 0.495 c -0.331,-0.382 -0.852,-0.608 -1.47,-0.608 -1.261,0 -2.131,0.921 -2.131,2.244 0,1.313 0.87,2.235 2.131,2.235 0.67,0 1.235,-0.252 1.566,-0.67 l 0.008,0.574 z" style="fill:#ffffff;fill-opacity:1;fill-rule:nonzero;stroke:none" id="path50"></path></g><path d="m 72.661,14.806 h 0.974 v -4.297 h -0.974 z m -0.13,1.236 c 0,0.356 0.261,0.608 0.617,0.608 0.374,0 0.635,-0.252 0.635,-0.608 0,-0.34 -0.261,-0.592 -0.635,-0.592 -0.356,0 -0.617,0.252 -0.617,0.592" style="fill:#ffffff;fill-opacity:1;fill-rule:nonzero;stroke:none" id="path52"></path><g id="g54" transform="translate(77.2366,10.6574)"><path d="m 0,0 c -0.331,-0.148 -0.609,-0.209 -0.965,-0.209 -0.888,0 -1.41,0.513 -1.41,1.54 v 1.992 h -0.809 v 0.826 h 0.809 v 1.122 l 0.966,0.105 V 4.149 h 1.235 V 3.323 H -1.409 V 1.331 c 0,-0.435 0.2,-0.679 0.6,-0.679 0.174,0 0.374,0.052 0.539,0.131 z" style="fill:#ffffff;fill-opacity:1;fill-rule:nonzero;stroke:none" id="path56"></path></g><g id="g58" transform="translate(80.8463,12.658)"><path d="M 0,0 C 0,0.8 -0.539,1.357 -1.313,1.357 -2.088,1.357 -2.627,0.8 -2.627,0 c 0,-0.8 0.539,-1.357 1.314,-1.357 C -0.539,-1.357 0,-0.8 0,0 m 0.974,2.148 v -4.297 h -0.87 l -0.008,0.575 c -0.331,-0.418 -0.905,-0.67 -1.566,-0.67 -1.261,0 -2.131,0.922 -2.131,2.244 0,1.322 0.87,2.244 2.131,2.244 0.67,0 1.235,-0.252 1.566,-0.67 l 0.008,0.574 z" style="fill:#ffffff;fill-opacity:1;fill-rule:nonzero;stroke:none" id="path60"></path></g><path d="m 82.569,16.598 h 0.974 v -6.089 h -0.974 z" style="fill:#ffffff;fill-opacity:1;fill-rule:nonzero;stroke:none" id="path62"></path><g id="g64" transform="translate(85.787,11.2402)"><path d="M 0,0 0.531,0.765 C 1.044,0.339 1.818,0.078 2.566,0.078 c 0.887,0 1.461,0.357 1.461,0.905 0,0.504 -0.469,0.774 -1.522,0.913 C 0.852,2.122 0.148,2.67 0.148,3.74 c 0,1.018 0.965,1.74 2.357,1.74 0.809,0 1.635,-0.278 2.253,-0.757 L 4.245,4.001 C 3.74,4.384 3.114,4.584 2.514,4.584 1.714,4.584 1.148,4.227 1.148,3.732 1.148,3.244 1.583,2.966 2.61,2.818 4.332,2.566 5.054,2.044 5.054,1.009 5.054,-0.113 4.062,-0.852 2.566,-0.852 1.644,-0.852 0.713,-0.548 0,0" style="fill:#ffffff;fill-opacity:1;fill-rule:nonzero;stroke:none" id="path66"></path></g><g id="g68" transform="translate(94.6333,12.658)"><path d="m 0,0 c 0,0.748 -0.513,1.357 -1.313,1.357 -0.809,0 -1.323,-0.609 -1.323,-1.357 0,-0.748 0.514,-1.357 1.323,-1.357 C -0.513,-1.357 0,-0.748 0,0 m -3.61,0 c 0,1.287 0.896,2.244 2.297,2.244 1.391,0 2.287,-0.957 2.287,-2.244 0,-1.287 -0.896,-2.244 -2.287,-2.244 -1.401,0 -2.297,0.957 -2.297,2.244" style="fill:#ffffff;fill-opacity:1;fill-rule:nonzero;stroke:none" id="path70"></path></g><path d="m 96.077,16.598 h 0.974 v -6.089 h -0.974 z" style="fill:#ffffff;fill-opacity:1;fill-rule:nonzero;stroke:none" id="path72"></path><g id="g74" transform="translate(101.8965,14.8063)"><path d="m 0,0 v -4.297 h -0.87 l -0.009,0.557 c -0.365,-0.427 -0.869,-0.644 -1.461,-0.644 -1.096,0 -1.809,0.783 -1.809,2.009 V 0 h 0.974 v -2.314 c 0,-0.757 0.383,-1.191 1.009,-1.191 0.713,0 1.192,0.522 1.192,1.243 V 0 Z" style="fill:#ffffff;fill-opacity:1;fill-rule:nonzero;stroke:none" id="path76"></path></g><g id="g78" transform="translate(105.4889,10.6574)"><path d="m 0,0 c -0.331,-0.148 -0.609,-0.209 -0.965,-0.209 -0.888,0 -1.41,0.513 -1.41,1.54 v 1.992 h -0.809 v 0.826 h 0.809 v 1.122 l 0.966,0.105 V 4.149 h 1.235 V 3.323 H -1.409 V 1.331 c 0,-0.435 0.2,-0.679 0.6,-0.679 0.174,0 0.374,0.052 0.539,0.131 z" style="fill:#ffffff;fill-opacity:1;fill-rule:nonzero;stroke:none" id="path80"></path></g><path d="m 105.776,14.806 h 0.974 v -4.297 h -0.974 z m -0.131,1.236 c 0,0.356 0.261,0.608 0.618,0.608 0.374,0 0.635,-0.252 0.635,-0.608 0,-0.34 -0.261,-0.592 -0.635,-0.592 -0.357,0 -0.618,0.252 -0.618,0.592" style="fill:#ffffff;fill-opacity:1;fill-rule:nonzero;stroke:none" id="path82"></path><g id="g84" transform="translate(110.8383,12.658)"><path d="m 0,0 c 0,0.748 -0.513,1.357 -1.313,1.357 -0.809,0 -1.323,-0.609 -1.323,-1.357 0,-0.748 0.514,-1.357 1.323,-1.357 C -0.513,-1.357 0,-0.748 0,0 m -3.61,0 c 0,1.287 0.896,2.244 2.297,2.244 1.391,0 2.287,-0.957 2.287,-2.244 0,-1.287 -0.896,-2.244 -2.287,-2.244 -1.401,0 -2.297,0.957 -2.297,2.244" style="fill:#ffffff;fill-opacity:1;fill-rule:nonzero;stroke:none" id="path86"></path></g><g id="g88" transform="translate(116.4837,12.8842)"><path d="m 0,0 v -2.375 h -0.974 v 2.314 c 0,0.757 -0.392,1.192 -1.044,1.192 -0.713,0 -1.209,-0.522 -1.209,-1.244 v -2.262 h -0.974 v 4.297 h 0.87 l 0.008,-0.565 c 0.366,0.435 0.887,0.652 1.488,0.652 C -0.731,2.009 0,1.226 0,0" style="fill:#ffffff;fill-opacity:1;fill-rule:nonzero;stroke:none" id="path90"></path></g><g id="g92" transform="translate(116.849,11.04)"><path d="M 0,0 0.452,0.704 C 0.835,0.4 1.4,0.226 1.966,0.226 2.514,0.226 2.827,0.4 2.827,0.713 2.827,1.018 2.549,1.166 1.888,1.235 0.765,1.34 0.13,1.809 0.13,2.557 c 0,0.783 0.749,1.314 1.862,1.314 0.652,0 1.226,-0.166 1.705,-0.496 L 3.271,2.679 C 2.888,2.923 2.479,3.044 2.035,3.044 1.418,3.044 1.087,2.87 1.087,2.557 1.087,2.279 1.34,2.131 1.966,2.061 3.236,1.922 3.793,1.513 3.793,0.704 3.793,-0.096 3.053,-0.635 1.94,-0.635 1.218,-0.635 0.574,-0.426 0,0" style="fill:#ffffff;fill-opacity:1;fill-rule:nonzero;stroke:none" id="path94"></path></g><g id="g96" transform="translate(7.0566,29.8239)"><path d="M 0,0 H 1.759 L 0.882,2.235 Z M 0.685,2.618 H 1.138 L 2.746,-1.434 H 2.328 l -0.435,1.086 h -2.044 l -0.435,-1.086 h -0.389 z" style="fill:#ffffff;fill-opacity:1;fill-rule:nonzero;stroke:none" id="path98"></path></g><g id="g100" transform="translate(15.411,28.3898)"><path d="M 0,0 V 1.968 C 0,2.076 -0.008,2.177 -0.023,2.27 -0.046,2.359 -0.083,2.436 -0.134,2.502 -0.18,2.572 -0.244,2.626 -0.325,2.665 -0.406,2.7 -0.507,2.717 -0.627,2.717 -0.832,2.717 -1.014,2.632 -1.173,2.462 -1.335,2.284 -1.419,2.009 -1.422,1.637 V 0 h -0.366 v 1.968 c 0,0.108 -0.008,0.209 -0.023,0.302 -0.024,0.089 -0.06,0.166 -0.111,0.232 -0.046,0.07 -0.11,0.124 -0.191,0.163 C -2.195,2.7 -2.295,2.717 -2.415,2.717 -2.62,2.717 -2.802,2.632 -2.961,2.462 -3.123,2.284 -3.207,2.009 -3.211,1.637 V 0 h -0.365 v 2.264 c 0,0.229 -0.008,0.461 -0.024,0.697 h 0.355 V 2.462 l 0.011,-0.006 c 0.027,0.054 0.064,0.114 0.111,0.18 0.038,0.066 0.092,0.127 0.162,0.186 0.07,0.058 0.157,0.108 0.261,0.15 0.105,0.039 0.234,0.059 0.389,0.059 0.07,0 0.145,-0.008 0.227,-0.024 0.077,-0.015 0.155,-0.046 0.232,-0.093 0.077,-0.042 0.145,-0.104 0.203,-0.185 0.058,-0.086 0.099,-0.194 0.122,-0.325 h 0.012 c 0.073,0.178 0.191,0.327 0.354,0.447 0.159,0.116 0.356,0.176 0.592,0.18 C -0.267,3.027 -0.035,2.934 0.128,2.752 0.286,2.574 0.366,2.336 0.366,2.038 V 0 Z" style="fill:#ffffff;fill-opacity:1;fill-rule:nonzero;stroke:none" id="path102"></path></g><g id="g104" transform="translate(18.2946,30.0793)"><path d="M 0,0 C 0,0.271 -0.056,0.507 -0.168,0.708 -0.288,0.913 -0.484,1.02 -0.755,1.028 -1.022,1.02 -1.233,0.912 -1.388,0.702 -1.546,0.494 -1.626,0.259 -1.626,0 Z m 0.18,-1.597 c -0.279,-0.104 -0.565,-0.158 -0.859,-0.162 -0.484,0.008 -0.83,0.157 -1.039,0.447 -0.209,0.282 -0.312,0.65 -0.308,1.103 0.004,0.461 0.12,0.834 0.348,1.121 0.221,0.282 0.521,0.425 0.9,0.429 C -0.364,1.333 -0.062,1.188 0.128,0.906 0.31,0.627 0.401,0.282 0.401,-0.128 v -0.185 h -2.027 c 0,-0.322 0.084,-0.587 0.25,-0.796 0.163,-0.221 0.404,-0.333 0.726,-0.337 0.143,0 0.294,0.025 0.453,0.076 0.158,0.042 0.284,0.091 0.377,0.145 z" style="fill:#ffffff;fill-opacity:1;fill-rule:nonzero;stroke:none" id="path106"></path></g><g id="g108" transform="translate(22.7534,28.3898)"><path d="M 0,0 V 1.968 C 0,2.076 -0.008,2.177 -0.023,2.27 -0.046,2.359 -0.083,2.436 -0.134,2.502 -0.18,2.572 -0.244,2.626 -0.325,2.665 -0.406,2.7 -0.507,2.717 -0.627,2.717 -0.832,2.717 -1.014,2.632 -1.173,2.462 -1.335,2.284 -1.419,2.009 -1.422,1.637 V 0 h -0.366 v 1.968 c 0,0.108 -0.008,0.209 -0.023,0.302 -0.024,0.089 -0.06,0.166 -0.111,0.232 -0.046,0.07 -0.11,0.124 -0.191,0.163 C -2.195,2.7 -2.295,2.717 -2.415,2.717 -2.62,2.717 -2.802,2.632 -2.961,2.462 -3.123,2.284 -3.207,2.009 -3.211,1.637 V 0 h -0.365 v 2.264 c 0,0.229 -0.008,0.461 -0.024,0.697 h 0.355 V 2.462 l 0.011,-0.006 c 0.027,0.054 0.064,0.114 0.111,0.18 0.038,0.066 0.092,0.127 0.162,0.186 0.07,0.058 0.157,0.108 0.261,0.15 0.105,0.039 0.234,0.059 0.389,0.059 0.07,0 0.145,-0.008 0.227,-0.024 C -2.007,2.992 -1.93,2.961 -1.852,2.914 -1.775,2.872 -1.707,2.81 -1.649,2.729 -1.591,2.643 -1.55,2.535 -1.527,2.404 h 0.012 c 0.073,0.178 0.191,0.327 0.354,0.447 0.159,0.116 0.356,0.176 0.592,0.18 C -0.267,3.027 -0.035,2.934 0.128,2.752 0.286,2.574 0.366,2.336 0.366,2.038 V 0 Z" style="fill:#ffffff;fill-opacity:1;fill-rule:nonzero;stroke:none" id="path110"></path></g><g id="g112" transform="translate(25.8895,29.8703)"><path d="M 0,0 C 0,0.147 -0.01,0.294 -0.029,0.441 -0.056,0.588 -0.104,0.72 -0.174,0.836 -0.236,0.96 -0.325,1.057 -0.441,1.126 -0.557,1.2 -0.702,1.237 -0.877,1.237 -1.039,1.237 -1.177,1.2 -1.289,1.126 -1.401,1.049 -1.492,0.948 -1.562,0.824 -1.693,0.565 -1.757,0.29 -1.753,0 c -0.004,-0.283 0.062,-0.555 0.197,-0.819 0.07,-0.123 0.161,-0.222 0.273,-0.296 0.108,-0.081 0.244,-0.122 0.406,-0.122 0.175,0 0.32,0.041 0.436,0.122 0.116,0.074 0.205,0.169 0.267,0.285 0.07,0.124 0.118,0.259 0.145,0.406 C -0.01,-0.281 0,-0.139 0,0 m -2.119,2.874 h 0.366 V 0.981 h 0.011 c 0.016,0.043 0.047,0.097 0.093,0.163 0.043,0.062 0.101,0.122 0.174,0.18 0.078,0.065 0.171,0.12 0.279,0.162 0.108,0.043 0.234,0.064 0.377,0.064 C -0.385,1.546 -0.072,1.401 0.122,1.115 0.308,0.832 0.401,0.461 0.401,0 0.401,-0.445 0.3,-0.813 0.099,-1.103 -0.106,-1.393 -0.412,-1.542 -0.819,-1.55 -1.24,-1.554 -1.548,-1.374 -1.742,-1.01 h -0.011 v -0.47 h -0.366 z" style="fill:#ffffff;fill-opacity:1;fill-rule:nonzero;stroke:none" id="path114"></path></g><g id="g116" transform="translate(28.6838,30.0793)"><path d="M 0,0 C 0,0.271 -0.056,0.507 -0.168,0.708 -0.288,0.913 -0.484,1.02 -0.755,1.028 -1.022,1.02 -1.233,0.912 -1.388,0.702 -1.546,0.494 -1.626,0.259 -1.626,0 Z m 0.18,-1.597 c -0.279,-0.104 -0.565,-0.158 -0.859,-0.162 -0.484,0.008 -0.83,0.157 -1.039,0.447 -0.209,0.282 -0.312,0.65 -0.308,1.103 0.004,0.461 0.12,0.834 0.348,1.121 0.221,0.282 0.521,0.425 0.9,0.429 C -0.364,1.333 -0.062,1.188 0.128,0.906 0.31,0.627 0.401,0.282 0.401,-0.128 v -0.185 h -2.027 c 0,-0.322 0.084,-0.587 0.25,-0.796 0.163,-0.221 0.404,-0.333 0.726,-0.337 0.143,0 0.294,0.025 0.453,0.076 0.158,0.042 0.284,0.091 0.377,0.145 z" style="fill:#ffffff;fill-opacity:1;fill-rule:nonzero;stroke:none" id="path118"></path></g><g id="g120" transform="translate(29.5663,30.6889)"><path d="M 0,0 C 0,0.275 -0.008,0.495 -0.023,0.662 H 0.343 V 0.093 H 0.354 C 0.424,0.267 0.523,0.416 0.65,0.54 0.774,0.664 0.929,0.728 1.115,0.731 1.211,0.728 1.297,0.716 1.37,0.697 V 0.313 C 1.289,0.337 1.2,0.348 1.103,0.348 0.96,0.344 0.842,0.31 0.749,0.244 0.656,0.174 0.581,0.079 0.523,-0.041 0.468,-0.157 0.43,-0.283 0.406,-0.418 0.379,-0.561 0.366,-0.701 0.366,-0.836 V -2.299 H 0 Z" style="fill:#ffffff;fill-opacity:1;fill-rule:nonzero;stroke:none" id="path122"></path></g><g id="g124" transform="translate(33.1715,29.8703)"><path d="m 0,0 c 0,-0.352 0.085,-0.642 0.255,-0.871 0.163,-0.24 0.405,-0.362 0.726,-0.366 0.321,0.004 0.567,0.126 0.737,0.366 C 1.881,-0.642 1.962,-0.352 1.962,0 1.962,0.352 1.881,0.646 1.718,0.883 1.548,1.115 1.302,1.233 0.981,1.237 0.66,1.233 0.418,1.115 0.255,0.883 0.085,0.646 0,0.352 0,0 m -0.401,0 c 0,0.422 0.113,0.782 0.337,1.08 C 0.161,1.386 0.509,1.542 0.981,1.55 1.461,1.542 1.813,1.386 2.038,1.08 2.255,0.782 2.363,0.422 2.363,0 2.363,-0.414 2.255,-0.772 2.038,-1.074 1.813,-1.384 1.461,-1.542 0.981,-1.55 0.509,-1.542 0.161,-1.384 -0.064,-1.074 -0.288,-0.772 -0.401,-0.414 -0.401,0" style="fill:#ffffff;fill-opacity:1;fill-rule:nonzero;stroke:none" id="path126"></path></g><g id="g128" transform="translate(36.2247,31.0372)"><path d="M 0,0 H -0.598 V 0.314 H 0 V 0.528 C 0,0.687 0.008,0.842 0.023,0.993 0.031,1.14 0.06,1.271 0.11,1.388 c 0.051,0.12 0.13,0.214 0.238,0.284 0.105,0.07 0.25,0.105 0.436,0.105 0.062,0 0.125,-0.002 0.191,-0.006 C 1.041,1.759 1.091,1.742 1.126,1.719 L 1.103,1.399 C 1.022,1.442 0.925,1.463 0.813,1.463 0.693,1.463 0.602,1.436 0.54,1.382 0.474,1.32 0.43,1.244 0.406,1.155 0.383,1.066 0.372,0.972 0.372,0.871 0.368,0.766 0.366,0.666 0.366,0.569 V 0.314 H 1.033 V 0 H 0.366 V -2.647 H 0 Z" style="fill:#ffffff;fill-opacity:1;fill-rule:nonzero;stroke:none" id="path130"></path></g><g id="g132" transform="translate(40.6834,31.0372)"><path d="m 0,0 h -0.673 v -1.916 c 0,-0.135 0.03,-0.249 0.092,-0.342 0.058,-0.097 0.159,-0.146 0.302,-0.146 0.132,0 0.244,0.024 0.337,0.07 l 0.023,-0.302 c -0.042,-0.015 -0.102,-0.033 -0.18,-0.052 -0.081,-0.019 -0.17,-0.029 -0.267,-0.029 -0.159,0 -0.284,0.027 -0.377,0.081 -0.089,0.054 -0.157,0.126 -0.203,0.215 -0.039,0.093 -0.064,0.197 -0.076,0.314 -0.011,0.116 -0.017,0.241 -0.017,0.377 V 0 H -1.62 v 0.314 h 0.581 v 0.714 l 0.366,0.127 V 0.314 l 0.673,0 z" style="fill:#ffffff;fill-opacity:1;fill-rule:nonzero;stroke:none" id="path134"></path></g><g id="g136" transform="translate(41.1397,32.7441)"><path d="m 0,0 h 0.366 v -1.893 h 0.011 c 0.082,0.167 0.202,0.304 0.36,0.412 0.159,0.101 0.347,0.153 0.563,0.157 0.395,-0.004 0.664,-0.12 0.807,-0.348 0.14,-0.232 0.207,-0.536 0.204,-0.912 v -1.77 H 1.945 v 1.765 c 0,0.131 -0.008,0.255 -0.023,0.371 C 1.906,-2.106 1.873,-2.007 1.823,-1.922 1.73,-1.736 1.536,-1.641 1.242,-1.637 0.925,-1.645 0.699,-1.767 0.563,-2.003 0.428,-2.239 0.362,-2.495 0.366,-2.769 V -4.354 H 0 Z" style="fill:#ffffff;fill-opacity:1;fill-rule:nonzero;stroke:none" id="path138"></path></g><g id="g140" transform="translate(45.9822,30.0793)"><path d="M 0,0 C 0,0.271 -0.056,0.507 -0.168,0.708 -0.288,0.913 -0.484,1.02 -0.755,1.028 -1.022,1.02 -1.233,0.912 -1.388,0.702 -1.546,0.494 -1.626,0.259 -1.626,0 Z m 0.18,-1.597 c -0.279,-0.104 -0.565,-0.158 -0.859,-0.162 -0.484,0.008 -0.83,0.157 -1.039,0.447 -0.209,0.282 -0.312,0.65 -0.308,1.103 0.004,0.461 0.12,0.834 0.348,1.121 0.221,0.282 0.521,0.425 0.9,0.429 C -0.364,1.333 -0.062,1.188 0.128,0.906 0.31,0.627 0.401,0.282 0.401,-0.128 v -0.185 h -2.027 c 0,-0.322 0.084,-0.587 0.25,-0.796 0.163,-0.221 0.404,-0.333 0.726,-0.337 0.143,0 0.294,0.025 0.453,0.076 0.158,0.042 0.284,0.091 0.377,0.145 z" style="fill:#ffffff;fill-opacity:1;fill-rule:nonzero;stroke:none" id="path142"></path></g><g id="g144" transform="translate(50.2146,32.1635)"><path d="m 0,0 c -0.472,-0.012 -0.821,-0.194 -1.045,-0.546 -0.225,-0.352 -0.337,-0.753 -0.337,-1.201 0,-0.45 0.112,-0.846 0.337,-1.191 0.224,-0.364 0.573,-0.549 1.045,-0.557 0.476,0.008 0.826,0.193 1.051,0.557 0.22,0.345 0.331,0.741 0.331,1.191 0,0.448 -0.111,0.849 -0.331,1.201 C 0.826,-0.194 0.476,-0.012 0,0 m -1.782,-1.747 c -0.004,0.568 0.141,1.056 0.435,1.463 C -1.057,0.126 -0.608,0.337 0,0.348 0.611,0.337 1.064,0.126 1.359,-0.284 1.649,-0.691 1.79,-1.179 1.782,-1.747 1.778,-2.378 1.627,-2.882 1.33,-3.257 1.028,-3.64 0.584,-3.836 0,-3.843 c -0.581,0.007 -1.02,0.203 -1.318,0.586 -0.302,0.375 -0.457,0.879 -0.464,1.51" style="fill:#ffffff;fill-opacity:1;fill-rule:nonzero;stroke:none" id="path146"></path></g><g id="g148" transform="translate(52.6047,30.6889)"><path d="M 0,0 C 0,0.275 -0.008,0.495 -0.023,0.662 H 0.343 V 0.093 H 0.354 C 0.424,0.267 0.523,0.416 0.65,0.54 0.774,0.664 0.929,0.728 1.115,0.731 1.211,0.728 1.297,0.716 1.37,0.697 V 0.313 C 1.289,0.337 1.2,0.348 1.103,0.348 0.96,0.344 0.842,0.31 0.749,0.244 0.656,0.174 0.581,0.079 0.523,-0.041 0.468,-0.157 0.43,-0.283 0.406,-0.418 0.379,-0.561 0.366,-0.701 0.366,-0.836 V -2.299 H 0 Z" style="fill:#ffffff;fill-opacity:1;fill-rule:nonzero;stroke:none" id="path150"></path></g><path d="M 54.344,31.351 H 54.71 V 28.39 h -0.366 z m 0.366,0.789 h -0.366 v 0.488 h 0.366 z" style="fill:#ffffff;fill-opacity:1;fill-rule:nonzero;stroke:none" id="path152"></path><g id="g154" transform="translate(57.3663,30.9559)"><path d="M 0,0 C -0.209,0.097 -0.42,0.147 -0.633,0.151 -0.989,0.147 -1.262,0.033 -1.451,-0.192 -1.649,-0.42 -1.747,-0.718 -1.747,-1.086 c 0,-0.344 0.096,-0.632 0.29,-0.865 0.189,-0.244 0.451,-0.367 0.784,-0.371 0.228,0 0.45,0.044 0.667,0.133 l 0.035,-0.342 c -0.24,-0.074 -0.493,-0.109 -0.761,-0.105 -0.476,0.008 -0.83,0.165 -1.062,0.471 -0.236,0.298 -0.354,0.657 -0.354,1.079 0.004,0.469 0.139,0.842 0.406,1.121 0.263,0.282 0.616,0.426 1.057,0.429 0.182,0 0.333,-0.013 0.453,-0.04 C -0.17,0.412 -0.116,0.401 -0.07,0.389 -0.027,0.373 0.006,0.36 0.029,0.348 Z" style="fill:#ffffff;fill-opacity:1;fill-rule:nonzero;stroke:none" id="path156"></path></g><g id="g158" transform="translate(59.5294,29.8819)"><path d="m 0,0 h -0.105 c -0.158,0 -0.317,-0.004 -0.476,-0.012 -0.166,-0.015 -0.317,-0.048 -0.452,-0.098 -0.136,-0.047 -0.244,-0.118 -0.326,-0.215 -0.089,-0.097 -0.133,-0.227 -0.133,-0.389 0,-0.19 0.062,-0.325 0.186,-0.407 0.116,-0.085 0.259,-0.127 0.429,-0.127 0.213,0 0.382,0.042 0.505,0.127 0.12,0.082 0.207,0.178 0.262,0.291 0.058,0.12 0.091,0.238 0.098,0.354 C -0.004,-0.356 0,-0.257 0,-0.18 Z M 0.035,-1.016 H 0.023 c -0.085,-0.174 -0.215,-0.308 -0.389,-0.401 -0.174,-0.092 -0.358,-0.141 -0.551,-0.145 -0.205,0.004 -0.372,0.037 -0.5,0.099 -0.131,0.058 -0.232,0.131 -0.301,0.221 -0.124,0.193 -0.182,0.365 -0.175,0.516 0,0.248 0.06,0.443 0.18,0.587 0.116,0.143 0.265,0.245 0.447,0.307 0.182,0.066 0.38,0.109 0.593,0.128 0.209,0.012 0.41,0.017 0.603,0.017 H 0 V 0.464 C 0.012,0.971 -0.213,1.225 -0.673,1.225 -0.979,1.229 -1.27,1.148 -1.544,0.981 v 0.354 c 0.274,0.128 0.565,0.196 0.871,0.203 0.7,0.008 1.046,-0.359 1.039,-1.103 V -0.871 C 0.362,-1.095 0.372,-1.302 0.395,-1.492 h -0.36 z" style="fill:#ffffff;fill-opacity:1;fill-rule:nonzero;stroke:none" id="path160"></path></g><g id="g162" transform="translate(65.0797,30.2361)"><path d="m 0,0 h -0.941 v 0.348 h 1.342 v -2.014 c -0.403,-0.171 -0.823,-0.254 -1.26,-0.25 -0.643,0.008 -1.142,0.201 -1.498,0.581 -0.364,0.375 -0.546,0.88 -0.546,1.515 0.004,0.627 0.188,1.132 0.552,1.515 0.36,0.379 0.857,0.573 1.492,0.581 0.166,0 0.354,-0.014 0.563,-0.041 C -0.091,2.204 0.083,2.154 0.226,2.084 L 0.18,1.713 C 0.021,1.798 -0.145,1.858 -0.319,1.893 -0.497,1.916 -0.677,1.927 -0.859,1.927 -1.386,1.92 -1.79,1.755 -2.073,1.434 -2.359,1.113 -2.502,0.695 -2.502,0.18 c 0,-0.519 0.141,-0.937 0.424,-1.254 0.278,-0.325 0.685,-0.49 1.219,-0.494 0.135,0 0.288,0.012 0.458,0.035 0.167,0.016 0.3,0.053 0.401,0.111 z" style="fill:#ffffff;fill-opacity:1;fill-rule:nonzero;stroke:none" id="path164"></path></g><g id="g166" transform="translate(66.2274,30.6889)"><path d="M 0,0 C 0,0.275 -0.008,0.495 -0.023,0.662 H 0.343 V 0.093 H 0.354 C 0.424,0.267 0.523,0.416 0.65,0.54 0.774,0.664 0.929,0.728 1.115,0.731 1.211,0.728 1.297,0.716 1.37,0.697 V 0.313 C 1.289,0.337 1.2,0.348 1.103,0.348 0.96,0.344 0.842,0.31 0.749,0.244 0.656,0.174 0.581,0.079 0.523,-0.041 0.468,-0.157 0.43,-0.283 0.406,-0.418 0.379,-0.561 0.366,-0.701 0.366,-0.836 V -2.299 H 0 Z" style="fill:#ffffff;fill-opacity:1;fill-rule:nonzero;stroke:none" id="path168"></path></g><g id="g170" transform="translate(68.1072,29.8703)"><path d="m 0,0 c 0,-0.352 0.085,-0.642 0.255,-0.871 0.163,-0.24 0.405,-0.362 0.726,-0.366 0.321,0.004 0.567,0.126 0.737,0.366 C 1.881,-0.642 1.962,-0.352 1.962,0 1.962,0.352 1.881,0.646 1.718,0.883 1.548,1.115 1.302,1.233 0.981,1.237 0.66,1.233 0.418,1.115 0.255,0.883 0.085,0.646 0,0.352 0,0 m -0.401,0 c 0,0.422 0.113,0.782 0.337,1.08 C 0.161,1.386 0.509,1.542 0.981,1.55 1.461,1.542 1.813,1.386 2.038,1.08 2.255,0.782 2.363,0.422 2.363,0 2.363,-0.414 2.255,-0.772 2.038,-1.074 1.813,-1.384 1.461,-1.542 0.981,-1.55 0.509,-1.542 0.161,-1.384 -0.064,-1.074 -0.288,-0.772 -0.401,-0.414 -0.401,0" style="fill:#ffffff;fill-opacity:1;fill-rule:nonzero;stroke:none" id="path172"></path></g><g id="g174" transform="translate(73.262,29.0865)"><path d="m 0,0 c -0.004,-0.225 0.004,-0.457 0.023,-0.697 h -0.354 v 0.529 h -0.012 c -0.027,-0.066 -0.063,-0.132 -0.11,-0.198 -0.046,-0.069 -0.106,-0.135 -0.18,-0.197 -0.073,-0.058 -0.164,-0.105 -0.273,-0.139 -0.108,-0.043 -0.24,-0.064 -0.394,-0.064 -0.36,0.004 -0.62,0.112 -0.778,0.325 -0.159,0.209 -0.237,0.48 -0.233,0.813 v 1.892 h 0.366 v -1.8 c 0,-0.282 0.056,-0.503 0.168,-0.661 0.109,-0.171 0.287,-0.256 0.535,-0.256 0.166,0 0.307,0.035 0.423,0.105 0.117,0.065 0.205,0.151 0.267,0.255 0.07,0.108 0.118,0.225 0.146,0.348 0.027,0.124 0.04,0.248 0.04,0.372 V 2.264 H 0 Z" style="fill:#ffffff;fill-opacity:1;fill-rule:nonzero;stroke:none" id="path176"></path></g><g id="g178" transform="translate(76.0505,29.8703)"><path d="M 0,0 C 0,0.147 -0.01,0.294 -0.029,0.441 -0.056,0.588 -0.104,0.72 -0.174,0.836 -0.236,0.96 -0.325,1.057 -0.441,1.126 -0.557,1.2 -0.702,1.237 -0.877,1.237 -1.039,1.237 -1.175,1.2 -1.283,1.126 -1.395,1.049 -1.486,0.948 -1.556,0.824 -1.626,0.701 -1.674,0.569 -1.701,0.43 -1.736,0.283 -1.753,0.139 -1.753,0 c -0.004,-0.283 0.062,-0.555 0.197,-0.819 0.07,-0.123 0.161,-0.222 0.273,-0.296 0.108,-0.081 0.244,-0.122 0.406,-0.122 0.175,0 0.32,0.041 0.436,0.122 0.116,0.074 0.205,0.169 0.267,0.285 0.07,0.124 0.118,0.259 0.145,0.406 C -0.01,-0.281 0,-0.139 0,0 m -2.119,1.48 h 0.366 L -1.777,0.941 h 0.012 c 0.023,0.042 0.058,0.1 0.105,0.174 0.042,0.065 0.1,0.131 0.174,0.197 0.073,0.066 0.164,0.124 0.273,0.174 0.108,0.043 0.24,0.064 0.394,0.064 C -0.385,1.546 -0.072,1.401 0.122,1.115 0.308,0.832 0.401,0.461 0.401,0 c 0,-0.445 -0.101,-0.813 -0.302,-1.103 -0.206,-0.29 -0.511,-0.439 -0.918,-0.447 -0.449,0 -0.756,0.192 -0.923,0.575 H -1.753 V -2.7 h -0.366 z" style="fill:#ffffff;fill-opacity:1;fill-rule:nonzero;stroke:none" id="path180"></path></g></g></g></g></svg> 